<?xml version="1.0" encoding="utf-8"?>
<svg width="520" height="736" viewBox="0 0 520 736" xmlns="http://www.w3.org/2000/svg">
<rect id="frame" x="0" y="0" width="520" height="736" fill="#f7f7f7" stroke="none" stroke-width="0"/>

<!-- Association RECEIVES -->
<g class="page_0_MCErZjHy diagram_page" visibility="visible">
	<line x1="353" y1="203" x2="353" y2="60" stroke="#9970ab" stroke-width="2"/>
	<text x="358" y="102" fill="#1b7837" font-family="Verdana" font-size="12">0,N</text>
	<line x1="192" y1="60" x2="353" y2="60" stroke="#9970ab" stroke-width="2"/>
	<text x="259" y="77" fill="#1b7837" font-family="Verdana" font-size="12">1,1</text>
	<g>
		<path d="M377 35 a14 14 90 0 1 14 14 V60 h-76 V49 a14 14 90 0 1 14 -14" fill="#c2a5cf" stroke="#c2a5cf" stroke-width="0"/>
		<path d="M391 60 v11 a14 14 90 0 1 -14 14 H329 a14 14 90 0 1 -14 -14 V60 H76" fill="#e7d4e8" stroke="#e7d4e8" stroke-width="0"/>
		<rect x="315" y="35" width="76" height="50" fill="none" rx="14" stroke="#9970ab" stroke-width="2"/>
		<line x1="315" y1="60" x2="391" y2="60" stroke="#9970ab" stroke-width="1"/>
		<text x="322" y="52.75" fill="#000" font-family="Verdana" font-size="12">RECEIVES</text>
	</g>
</g>

<!-- Association GIVES -->
<g class="page_0_MCErZjHy diagram_page" visibility="visible">
	<line x1="353" y1="203" x2="192" y2="203" stroke="#9970ab" stroke-width="2"/>
	<text x="274" y="195" fill="#1b7837" font-family="Verdana" font-size="12">0,N</text>
	<line x1="192" y1="60" x2="192" y2="203" stroke="#9970ab" stroke-width="2"/>
	<text x="197" y="128" fill="#1b7837" font-family="Verdana" font-size="12">1,1</text>
	<g>
		<path d="M205 178 a14 14 90 0 1 14 14 V203 h-54 V192 a14 14 90 0 1 14 -14" fill="#c2a5cf" stroke="#c2a5cf" stroke-width="0"/>
		<path d="M219 203 v11 a14 14 90 0 1 -14 14 H179 a14 14 90 0 1 -14 -14 V203 H54" fill="#e7d4e8" stroke="#e7d4e8" stroke-width="0"/>
		<rect x="165" y="178" width="54" height="50" fill="none" rx="14" stroke="#9970ab" stroke-width="2"/>
		<line x1="165" y1="203" x2="219" y2="203" stroke="#9970ab" stroke-width="1"/>
		<text x="173" y="195.75" fill="#000" font-family="Verdana" font-size="12">GIVES</text>
	</g>
</g>

<!-- Association HAS -->
<g class="page_0_MCErZjHy diagram_page" visibility="visible">
	<line x1="353" y1="203" x2="475" y2="203" stroke="#9970ab" stroke-width="2"/>
	<text x="410" y="195" fill="#1b7837" font-family="Verdana" font-size="12">1,1</text>
	<line x1="475" y1="60" x2="475" y2="203" stroke="#9970ab" stroke-width="2"/>
	<text x="480" y="111" fill="#1b7837" font-family="Verdana" font-size="12">0,N</text>
	<g>
		<path d="M481 178 a14 14 90 0 1 14 14 V203 h-40 V192 a14 14 90 0 1 14 -14" fill="#c2a5cf" stroke="#c2a5cf" stroke-width="0"/>
		<path d="M495 203 v11 a14 14 90 0 1 -14 14 H469 a14 14 90 0 1 -14 -14 V203 H40" fill="#e7d4e8" stroke="#e7d4e8" stroke-width="0"/>
		<rect x="455" y="178" width="40" height="50" fill="none" rx="14" stroke="#9970ab" stroke-width="2"/>
		<line x1="455" y1="203" x2="495" y2="203" stroke="#9970ab" stroke-width="1"/>
		<text x="462" y="195.75" fill="#000" font-family="Verdana" font-size="12">HAS</text>
	</g>
</g>

<!-- Association IS DRIVER OF -->
<g class="page_0_MCErZjHy diagram_page" visibility="visible">
	<line x1="192" y1="524" x2="192" y2="355" stroke="#9970ab" stroke-width="2"/>
	<text x="166" y="414" fill="#1b7837" font-family="Verdana" font-size="12">1,1</text>
	<line x1="353" y1="203" x2="192" y2="355" stroke="#9970ab" stroke-width="2"/>
	<text x="274" y="250.88" fill="#1b7837" font-family="Verdana" font-size="12">0,N</text>
	<g>
		<path d="M228 330 a14 14 90 0 1 14 14 V355 h-100 V344 a14 14 90 0 1 14 -14" fill="#c2a5cf" stroke="#c2a5cf" stroke-width="0"/>
		<path d="M242 355 v11 a14 14 90 0 1 -14 14 H156 a14 14 90 0 1 -14 -14 V355 H100" fill="#e7d4e8" stroke="#e7d4e8" stroke-width="0"/>
		<rect x="142" y="330" width="100" height="50" fill="none" rx="14" stroke="#9970ab" stroke-width="2"/>
		<line x1="142" y1="355" x2="242" y2="355" stroke="#9970ab" stroke-width="1"/>
		<text x="149" y="347.75" fill="#000" font-family="Verdana" font-size="12">IS DRIVER OF</text>
	</g>
</g>

<!-- Association IS PASSENGER OF -->
<g class="page_0_MCErZjHy diagram_page" visibility="visible">
	<line x1="192" y1="524" x2="353" y2="355" stroke="#9970ab" stroke-width="2"/>
	<text x="284" y="442.85" fill="#1b7837" font-family="Verdana" font-size="12">0,N</text>
	<line x1="353" y1="203" x2="353" y2="355" stroke="#9970ab" stroke-width="2"/>
	<text x="358" y="313" fill="#1b7837" font-family="Verdana" font-size="12">0,N</text>
	<g>
		<path d="M403 321 a14 14 90 0 1 14 14 V346 h-128 V335 a14 14 90 0 1 14 -14" fill="#c2a5cf" stroke="#c2a5cf" stroke-width="0"/>
		<path d="M417 346 v29 a14 14 90 0 1 -14 14 H303 a14 14 90 0 1 -14 -14 V346 H128" fill="#e7d4e8" stroke="#e7d4e8" stroke-width="0"/>
		<rect x="289" y="321" width="128" height="68" fill="none" rx="14" stroke="#9970ab" stroke-width="2"/>
		<line x1="289" y1="346" x2="417" y2="346" stroke="#9970ab" stroke-width="1"/>
		<text x="297" y="338.75" fill="#000" font-family="Verdana" font-size="12">IS PASSENGER OF</text>
		<text x="296" y="363.8" fill="#000" font-family="Verdana" font-size="12">#userId</text>
		<text x="296" y="380.8" fill="#000" font-family="Verdana" font-size="12">#journeyId</text>
	</g>
</g>

<!-- Association LIVES -->
<g class="page_0_MCErZjHy diagram_page" visibility="visible">
	<line x1="353" y1="203" x2="475" y2="355" stroke="#9970ab" stroke-width="2"/>
	<text x="410" y="265.77" fill="#1b7837" font-family="Verdana" font-size="12">1,1</text>
	<line x1="475" y1="524" x2="475" y2="355" stroke="#9970ab" stroke-width="2"/>
	<text x="480" y="474" fill="#1b7837" font-family="Verdana" font-size="12">0,N</text>
	<g>
		<path d="M487 330 a14 14 90 0 1 14 14 V355 h-52 V344 a14 14 90 0 1 14 -14" fill="#c2a5cf" stroke="#c2a5cf" stroke-width="0"/>
		<path d="M501 355 v11 a14 14 90 0 1 -14 14 H463 a14 14 90 0 1 -14 -14 V355 H52" fill="#e7d4e8" stroke="#e7d4e8" stroke-width="0"/>
		<rect x="449" y="330" width="52" height="50" fill="none" rx="14" stroke="#9970ab" stroke-width="2"/>
		<line x1="449" y1="355" x2="501" y2="355" stroke="#9970ab" stroke-width="1"/>
		<text x="457" y="347.75" fill="#000" font-family="Verdana" font-size="12">LIVES</text>
	</g>
</g>

<!-- Association LOADS -->
<g class="page_0_MCErZjHy diagram_page" visibility="visible">
	<line x1="44" y1="355" x2="44" y2="524" stroke="#9970ab" stroke-width="2"/>
	<text x="49" y="414" fill="#1b7837" font-family="Verdana" font-size="12">0,N</text>
	<line x1="192" y1="524" x2="44" y2="524" stroke="#9970ab" stroke-width="2"/>
	<text x="79" y="541" fill="#1b7837" font-family="Verdana" font-size="12">1,1</text>
	<g>
		<path d="M59 499 a14 14 90 0 1 14 14 V524 h-58 V513 a14 14 90 0 1 14 -14" fill="#c2a5cf" stroke="#c2a5cf" stroke-width="0"/>
		<path d="M73 524 v11 a14 14 90 0 1 -14 14 H29 a14 14 90 0 1 -14 -14 V524 H58" fill="#e7d4e8" stroke="#e7d4e8" stroke-width="0"/>
		<rect x="15" y="499" width="58" height="50" fill="none" rx="14" stroke="#9970ab" stroke-width="2"/>
		<line x1="15" y1="524" x2="73" y2="524" stroke="#9970ab" stroke-width="1"/>
		<text x="23" y="516.75" fill="#000" font-family="Verdana" font-size="12">LOADS</text>
	</g>
</g>

<!-- Association STARTS AT -->
<g class="page_0_MCErZjHy diagram_page" visibility="visible">
	<line x1="475" y1="524" x2="353" y2="524" stroke="#9970ab" stroke-width="2"/>
	<text x="417" y="541" fill="#1b7837" font-family="Verdana" font-size="12">0,N</text>
	<line x1="192" y1="524" x2="353" y2="524" stroke="#9970ab" stroke-width="2"/>
	<text x="284" y="541" fill="#1b7837" font-family="Verdana" font-size="12">1,1</text>
	<g>
		<path d="M381 499 a14 14 90 0 1 14 14 V524 h-84 V513 a14 14 90 0 1 14 -14" fill="#c2a5cf" stroke="#c2a5cf" stroke-width="0"/>
		<path d="M395 524 v11 a14 14 90 0 1 -14 14 H325 a14 14 90 0 1 -14 -14 V524 H84" fill="#e7d4e8" stroke="#e7d4e8" stroke-width="0"/>
		<rect x="311" y="499" width="84" height="50" fill="none" rx="14" stroke="#9970ab" stroke-width="2"/>
		<line x1="311" y1="524" x2="395" y2="524" stroke="#9970ab" stroke-width="1"/>
		<text x="319" y="516.75" fill="#000" font-family="Verdana" font-size="12">STARTS AT</text>
	</g>
</g>

<!-- Association GOES TO -->
<g class="page_0_MCErZjHy diagram_page" visibility="visible">
	<line x1="192" y1="524" x2="192" y2="676" stroke="#9970ab" stroke-width="2"/>
	<text x="197" y="643" fill="#1b7837" font-family="Verdana" font-size="12">1,1</text>
	<line x1="353" y1="676" x2="192" y2="676" stroke="#9970ab" stroke-width="2"/>
	<text x="295" y="693" fill="#1b7837" font-family="Verdana" font-size="12">0,N</text>
	<g>
		<path d="M214 651 a14 14 90 0 1 14 14 V676 h-72 V665 a14 14 90 0 1 14 -14" fill="#c2a5cf" stroke="#c2a5cf" stroke-width="0"/>
		<path d="M228 676 v11 a14 14 90 0 1 -14 14 H170 a14 14 90 0 1 -14 -14 V676 H72" fill="#e7d4e8" stroke="#e7d4e8" stroke-width="0"/>
		<rect x="156" y="651" width="72" height="50" fill="none" rx="14" stroke="#9970ab" stroke-width="2"/>
		<line x1="156" y1="676" x2="228" y2="676" stroke="#9970ab" stroke-width="1"/>
		<text x="164" y="668.75" fill="#000" font-family="Verdana" font-size="12">GOES TO</text>
	</g>
</g>

<!-- Association LOCATES -->
<g class="page_0_MCErZjHy diagram_page" visibility="visible">
	<line x1="475" y1="524" x2="475" y2="676" stroke="#9970ab" stroke-width="2"/>
	<text x="480" y="583" fill="#1b7837" font-family="Verdana" font-size="12">0,N</text>
	<line x1="353" y1="676" x2="475" y2="676" stroke="#9970ab" stroke-width="2"/>
	<text x="389" y="693" fill="#1b7837" font-family="Verdana" font-size="12">1,1</text>
	<g>
		<path d="M497 651 a14 14 90 0 1 14 14 V676 h-72 V665 a14 14 90 0 1 14 -14" fill="#c2a5cf" stroke="#c2a5cf" stroke-width="0"/>
		<path d="M511 676 v11 a14 14 90 0 1 -14 14 H453 a14 14 90 0 1 -14 -14 V676 H72" fill="#e7d4e8" stroke="#e7d4e8" stroke-width="0"/>
		<rect x="439" y="651" width="72" height="50" fill="none" rx="14" stroke="#9970ab" stroke-width="2"/>
		<line x1="439" y1="676" x2="511" y2="676" stroke="#9970ab" stroke-width="1"/>
		<text x="447" y="668.75" fill="#000" font-family="Verdana" font-size="12">LOCATES</text>
	</g>
</g>

<!-- Entity Review -->
<g class="page_0_MCErZjHy diagram_page" visibility="visible">
	<g>
		<rect x="130" y="9" width="124" height="25" fill="#a6dba0" stroke="#a6dba0" stroke-width="0" opacity="1"/>
		<rect x="130" y="34" width="124" height="77" fill="#d9f0d3" stroke="#d9f0d3" stroke-width="0" opacity="1"/>
		<rect x="130" y="9" width="124" height="102" fill="none" stroke="#5aae61" stroke-width="2" opacity="1"/>
		<line x1="130" y1="34" x2="254" y2="34" stroke="#5aae61" stroke-width="1"/>
	</g>
	<text x="170" y="26.75" fill="#000" font-family="Verdana" font-size="12">Review</text>
	<text x="135" y="51.8" fill="#000" font-family="Verdana" font-size="12">id</text>
	<line x1="135" y1="54" x2="147" y2="54" stroke="#000" stroke-width="1"/>
	<text x="135" y="68.8" fill="#000" font-family="Verdana" font-size="12">#user</text>
	<text x="135" y="85.8" fill="#000" font-family="Verdana" font-size="12">text review</text>
	<text x="135" y="102.8" fill="#000" font-family="Verdana" font-size="12">journey evaluation</text>
</g>

<!-- Entity Gender -->
<g class="page_0_MCErZjHy diagram_page" visibility="visible">
	<g>
		<rect x="447" y="26" width="56" height="25" fill="#a6dba0" stroke="#a6dba0" stroke-width="0" opacity="1"/>
		<rect x="447" y="51" width="56" height="43" fill="#d9f0d3" stroke="#d9f0d3" stroke-width="0" opacity="1"/>
		<rect x="447" y="26" width="56" height="68" fill="none" stroke="#5aae61" stroke-width="2" opacity="1"/>
		<line x1="447" y1="51" x2="503" y2="51" stroke="#5aae61" stroke-width="1"/>
	</g>
	<text x="453" y="43.75" fill="#000" font-family="Verdana" font-size="12">Gender</text>
	<text x="452" y="68.8" fill="#000" font-family="Verdana" font-size="12">id</text>
	<line x1="452" y1="71" x2="464" y2="71" stroke="#000" stroke-width="1"/>
	<text x="452" y="85.8" fill="#000" font-family="Verdana" font-size="12">gender</text>
</g>

<!-- Entity User -->
<g class="page_0_MCErZjHy diagram_page" visibility="visible">
	<g>
		<rect x="301" y="110" width="104" height="25" fill="#a6dba0" stroke="#a6dba0" stroke-width="0" opacity="1"/>
		<rect x="301" y="135" width="104" height="161" fill="#d9f0d3" stroke="#d9f0d3" stroke-width="0" opacity="1"/>
		<rect x="301" y="110" width="104" height="186" fill="none" stroke="#5aae61" stroke-width="2" opacity="1"/>
		<line x1="301" y1="135" x2="405" y2="135" stroke="#5aae61" stroke-width="1"/>
	</g>
	<text x="339" y="127.75" fill="#000" font-family="Verdana" font-size="12">User</text>
	<text x="306" y="152.8" fill="#000" font-family="Verdana" font-size="12">id</text>
	<line x1="306" y1="155" x2="318" y2="155" stroke="#000" stroke-width="1"/>
	<text x="306" y="169.8" fill="#000" font-family="Verdana" font-size="12">firstname</text>
	<text x="306" y="186.8" fill="#000" font-family="Verdana" font-size="12">lastname</text>
	<text x="306" y="203.8" fill="#000" font-family="Verdana" font-size="12">#gender</text>
	<text x="306" y="220.8" fill="#000" font-family="Verdana" font-size="12">email</text>
	<text x="306" y="237.8" fill="#000" font-family="Verdana" font-size="12">(email_check?)</text>
	<text x="306" y="254.8" fill="#000" font-family="Verdana" font-size="12">#city</text>
	<text x="306" y="271.8" fill="#000" font-family="Verdana" font-size="12">password</text>
	<text x="306" y="288.8" fill="#000" font-family="Verdana" font-size="12">image_link</text>
</g>

<!-- Entity Boardsize -->
<g class="page_0_MCErZjHy diagram_page" visibility="visible">
	<g>
		<rect x="9" y="313" width="70" height="25" fill="#a6dba0" stroke="#a6dba0" stroke-width="0" opacity="1"/>
		<rect x="9" y="338" width="70" height="59" fill="#d9f0d3" stroke="#d9f0d3" stroke-width="0" opacity="1"/>
		<rect x="9" y="313" width="70" height="84" fill="none" stroke="#5aae61" stroke-width="2" opacity="1"/>
		<line x1="9" y1="338" x2="79" y2="338" stroke="#5aae61" stroke-width="1"/>
	</g>
	<text x="15" y="330.75" fill="#000" font-family="Verdana" font-size="12">Boardsize</text>
	<text x="14" y="355.8" fill="#000" font-family="Verdana" font-size="12">id</text>
	<line x1="14" y1="358" x2="26" y2="358" stroke="#000" stroke-width="1"/>
	<text x="14" y="372.8" fill="#000" font-family="Verdana" font-size="12">size</text>
	<text x="14" y="389.8" fill="#000" font-family="Verdana" font-size="12">category</text>
</g>

<!-- Entity Journey -->
<g class="page_0_MCErZjHy diagram_page" visibility="visible">
	<g>
		<rect x="105" y="422" width="174" height="25" fill="#a6dba0" stroke="#a6dba0" stroke-width="0" opacity="1"/>
		<rect x="105" y="447" width="174" height="179" fill="#d9f0d3" stroke="#d9f0d3" stroke-width="0" opacity="1"/>
		<rect x="105" y="422" width="174" height="204" fill="none" stroke="#5aae61" stroke-width="2" opacity="1"/>
		<line x1="105" y1="447" x2="279" y2="447" stroke="#5aae61" stroke-width="1"/>
	</g>
	<text x="168" y="439.75" fill="#000" font-family="Verdana" font-size="12">Journey</text>
	<text x="110" y="464.8" fill="#000" font-family="Verdana" font-size="12">id</text>
	<line x1="110" y1="467" x2="122" y2="467" stroke="#000" stroke-width="1"/>
	<text x="110" y="481.8" fill="#000" font-family="Verdana" font-size="12">#departure city</text>
	<text x="110" y="498.8" fill="#000" font-family="Verdana" font-size="12">#destination surfspot</text>
	<text x="110" y="515.8" fill="#000" font-family="Verdana" font-size="12">meeting address</text>
	<text x="110" y="532.8" fill="#000" font-family="Verdana" font-size="12">departure time</text>
	<text x="110" y="549.8" fill="#000" font-family="Verdana" font-size="12">price</text>
	<text x="110" y="566.8" fill="#000" font-family="Verdana" font-size="12">place available</text>
	<text x="110" y="583.8" fill="#000" font-family="Verdana" font-size="12">number of board allowed</text>
	<text x="110" y="600.8" fill="#000" font-family="Verdana" font-size="12">effective number of boards</text>
	<text x="110" y="617.8" fill="#000" font-family="Verdana" font-size="12">#board size allowed</text>
</g>

<!-- Entity City -->
<g class="page_0_MCErZjHy diagram_page" visibility="visible">
	<g>
		<rect x="444" y="482" width="62" height="25" fill="#a6dba0" stroke="#a6dba0" stroke-width="0" opacity="1"/>
		<rect x="444" y="507" width="62" height="59" fill="#d9f0d3" stroke="#d9f0d3" stroke-width="0" opacity="1"/>
		<rect x="444" y="482" width="62" height="84" fill="none" stroke="#5aae61" stroke-width="2" opacity="1"/>
		<line x1="444" y1="507" x2="506" y2="507" stroke="#5aae61" stroke-width="1"/>
	</g>
	<text x="463" y="499.75" fill="#000" font-family="Verdana" font-size="12">City</text>
	<text x="449" y="524.8" fill="#000" font-family="Verdana" font-size="12">id</text>
	<line x1="449" y1="527" x2="461" y2="527" stroke="#000" stroke-width="1"/>
	<text x="449" y="541.8" fill="#000" font-family="Verdana" font-size="12">city</text>
	<text x="449" y="558.8" fill="#000" font-family="Verdana" font-size="12">zip code</text>
</g>

<!-- Entity Surfspot -->
<g class="page_0_MCErZjHy diagram_page" visibility="visible">
	<g>
		<rect x="322" y="625" width="62" height="25" fill="#a6dba0" stroke="#a6dba0" stroke-width="0" opacity="1"/>
		<rect x="322" y="650" width="62" height="77" fill="#d9f0d3" stroke="#d9f0d3" stroke-width="0" opacity="1"/>
		<rect x="322" y="625" width="62" height="102" fill="none" stroke="#5aae61" stroke-width="2" opacity="1"/>
		<line x1="322" y1="650" x2="384" y2="650" stroke="#5aae61" stroke-width="1"/>
	</g>
	<text x="327" y="642.75" fill="#000" font-family="Verdana" font-size="12">Surfspot</text>
	<text x="327" y="667.8" fill="#000" font-family="Verdana" font-size="12">id</text>
	<line x1="327" y1="670" x2="339" y2="670" stroke="#000" stroke-width="1"/>
	<text x="327" y="684.8" fill="#000" font-family="Verdana" font-size="12">name</text>
	<text x="327" y="701.8" fill="#000" font-family="Verdana" font-size="12">level</text>
	<text x="327" y="718.8" fill="#000" font-family="Verdana" font-size="12">#city</text>
</g>
</svg>